<svg id="Layer_1" data-name="Layer 1" xmlns="http://www.w3.org/2000/svg" width="200" viewBox="0 0 541.89 141.39"><defs><style>.cls-1{fill:#030104;}.cls-2{font-size:88px;fill:#2e3192;font-family:CocogooseProTrial-Darkmode, CocogooseProTrial;}.cls-3{letter-spacing:-0.01em;}.cls-4{letter-spacing:0em;}.cls-4,.cls-5{fill:#000;}.cls-6{font-size:38px;font-family:CocogooseProTrial-Light, CocogooseProTrial;font-weight:300;}.cls-7{letter-spacing:-0.02em;}</style></defs><g id="SVGRepo_iconCarrier" data-name="SVGRepo iconCarrier"><path class="cls-1" d="M107,84.37c3.91,2.94,5.84,4.55,6.65,6.69,1.6,4.22-.76,7.45-5,9-1.86.7-3.06,1.15-6.7.72,0,0-2.65-1.06-7.18.87-4.72,1.57-6,4.14-6,4.14-2.44,2.73-3.61,3.15-5.47,3.85-4.22,1.6-8.13.74-9.73-3.48-.81-2.14-.42-4.63.57-9.41,0,0,1.72-9.45,4.37-14.58a12.63,12.63,0,0,1,6.15-5.3l1.3-.49h0s4.41-1.68,8.12-.1C99.37,78.61,107,84.38,107,84.37ZM73,75.43c4.42-1.67,5.89-8.6,3.29-15.48S68,48.84,63.61,50.51,57.73,59.11,60.33,66,68.62,77.1,73,75.43Zm-3.1,15c2.69-2.73,1.42-8.34-2.84-12.52S57.2,72.5,54.52,75.23s-1.42,8.34,2.84,12.53S67.24,93.12,69.93,90.39Zm21.69-22c4.42-1.67,5.89-8.6,3.29-15.48S86.62,41.81,82.2,43.48,76.32,52.08,78.92,59,87.21,70.07,91.62,68.4ZM105.38,56c-3.82-.27-7.26,4.34-7.69,10.3s2.34,11,6.16,11.27,7.26-4.33,7.69-10.29S109.2,56.28,105.38,56Z" transform="translate(-53.11 -31.1)"/></g><g id="SVGRepo_iconCarrier-2" data-name="SVGRepo iconCarrier"><path class="cls-1" d="M130.88,141.66c1.36,2.84,2,4.34,1.8,5.8-.35,2.89-2.66,4-5.54,3.68a7.35,7.35,0,0,1-4-1.59s-1.2-1.39-4.36-1.64c-3.17-.51-4.66.57-4.66.57a7.22,7.22,0,0,1-4.27.57c-2.89-.35-4.86-2-4.51-4.89.17-1.46,1.13-2.76,3.13-5.2,0,0,3.8-4.88,6.84-7a8.09,8.09,0,0,1,5.08-1.19l.9.11h0a7.91,7.91,0,0,1,4.66,2.36A54.14,54.14,0,0,1,130.88,141.66Zm-16.71-15.22c3,.36,5.93-3.16,6.49-7.86s-1.42-8.81-4.43-9.17-5.93,3.15-6.5,7.85S111.15,126.07,114.17,126.44Zm-6.23,7.61c2.35-.76,3.29-4.34,2.11-8s-4-6-6.39-5.26-3.29,4.34-2.11,8S105.59,134.81,107.94,134.05ZM126.88,128c3,.36,5.92-3.15,6.49-7.86s-1.42-8.81-4.44-9.17-5.92,3.15-6.49,7.86S123.86,127.61,126.88,128Zm11.54-3c-2.1-1.3-5.44.31-7.45,3.58s-1.95,7,.15,8.27,5.44-.31,7.45-3.58S140.52,126.29,138.42,125Z" transform="translate(-53.11 -31.1)"/></g><text class="cls-2" transform="translate(92.2 77.26)"><tspan class="cls-3">P</tspan><tspan x="58.67" y="0">aw-</tspan><tspan class="cls-4" x="259.5" y="0">f</tspan><tspan class="cls-5" x="291.72" y="0">ect</tspan></text><text class="cls-6" transform="translate(99.06 119.06)"><tspan class="cls-7">A</tspan><tspan x="26.27" y="0">doptions</tspan></text></svg>