<svg id="Layer_1" data-name="Layer 1" width="200" xmlns="http://www.w3.org/2000/svg" viewBox="0 0 496.17 110.51"><defs><style>.cls-1{fill:#2e3192;}.cls-2{fill:#030104;}</style></defs><path class="cls-1" d="M174.82,121.45c-2.64.56-5.29,1.13-7.93,1.71a1.49,1.49,0,0,1-2-1.26L152.74,67.67c-.24-1.09.23-1.77,1.41-2q11.17-2.47,22.4-4.68a25.63,25.63,0,0,1,12,.25,18.13,18.13,0,0,1,8.8,5.42A18.62,18.62,0,0,1,201.68,76a21,21,0,0,1-.75,10.77,17.58,17.58,0,0,1-6,8.19,25.11,25.11,0,0,1-10.7,4.55q-5.87,1.14-11.74,2.38,1.84,8.76,3.68,17.52A1.5,1.5,0,0,1,174.82,121.45Zm11.6-34.1a9,9,0,0,0,3-4,9.39,9.39,0,0,0,.39-5.13,8.44,8.44,0,0,0-6.47-6.93,12.62,12.62,0,0,0-5.62-.07q-5.62,1.11-11.24,2.29,1.92,9.14,3.83,18.26,5.49-1.14,11-2.23A12.07,12.07,0,0,0,186.42,87.35Z" transform="translate(-63.79 -36.14)"/><path class="cls-1" d="M249.35,58.16l6.22-.7c1.19-.13,1.84.36,2,1.47q2.54,23.42,5.05,46.82a1.49,1.49,0,0,1-1.5,1.85c-2,.22-4,.45-6,.69a1.71,1.71,0,0,1-2-1.25L252,102.53a20.17,20.17,0,0,1-5.9,6,19.77,19.77,0,0,1-8.43,3,25,25,0,0,1-13.24-1.62,26.66,26.66,0,0,1-16.09-20.43A25.4,25.4,0,0,1,209.57,76a25,25,0,0,1,8-10.86,26.23,26.23,0,0,1,12.92-5.39,21.45,21.45,0,0,1,9.52.65,19.61,19.61,0,0,1,7.5,4.35l.09-4.86A1.78,1.78,0,0,1,249.35,58.16Zm-5.49,40.11A14.8,14.8,0,0,0,248.63,92a16.22,16.22,0,0,0,1-8.25,16.4,16.4,0,0,0-3-7.84,14.68,14.68,0,0,0-6.27-5,15.27,15.27,0,0,0-8.26-1,15,15,0,0,0-7.55,3.16,14.34,14.34,0,0,0-4.55,6.47,17,17,0,0,0-.69,8.37,17.22,17.22,0,0,0,3.09,7.72,14.25,14.25,0,0,0,6,4.76,15,15,0,0,0,7.88.94A15.44,15.44,0,0,0,243.86,98.27Z" transform="translate(-63.79 -36.14)"/><path class="cls-1" d="M334.66,52.16q4.43-.1,8.85-.17a1.93,1.93,0,0,1,1.19.3,1,1,0,0,1,.43.85,1.49,1.49,0,0,1-.17.76q-9.06,23.7-17.18,47.59a1.91,1.91,0,0,1-1.9,1.4c-2.51.09-5,.19-7.52.3a1.9,1.9,0,0,1-2-1.25q-4.73-10.56-9.66-21.09-3.49,11-6.78,22a1.8,1.8,0,0,1-1.81,1.46l-7.63.55a1.92,1.92,0,0,1-2.05-1.19Q277.7,80.86,266,58.31a2.22,2.22,0,0,1-.21-.7,1.09,1.09,0,0,1,.34-.94,1.8,1.8,0,0,1,1.1-.42l8.37-.78a2,2,0,0,1,2.13,1.21q8.06,17.38,15.61,34.9,4.49-18.37,9.45-36.71a1.82,1.82,0,0,1,1.88-1.5q4.44-.25,8.88-.46a1.91,1.91,0,0,1,1.15.26,1,1,0,0,1,.47.88,2.31,2.31,0,0,1-.1.72Q313,61,311,67.27,316.1,78.63,321,90q5.58-18.25,11.69-36.43A2,2,0,0,1,334.66,52.16Z" transform="translate(-63.79 -36.14)"/><path class="cls-1" d="M381.36,81.73q-14.6-.39-29.2-.31a1.5,1.5,0,0,1-1.74-1.66c0-2,0-3.94-.05-5.91a1.51,1.51,0,0,1,1.74-1.69q14.75-.09,29.49.31c1.17,0,1.74.61,1.7,1.72q-.07,3-.17,5.91A1.5,1.5,0,0,1,381.36,81.73Z" transform="translate(-63.79 -36.14)"/><path d="M402.2,103.48c-2.47-.12-4.95-.24-7.43-.34a1.5,1.5,0,0,1-1.62-1.75q.8-19.36,1.58-38.72L390,62.49q-1.77-.06-1.71-1.74l.23-6.66c0-1.12.65-1.66,1.84-1.61,1.61.05,3.21.11,4.82.18,0-1.06.09-2.12.13-3.19.2-4.91,1.87-8.45,5-10.59s8-3,14.45-2.65l1.68.1c1.21.08,1.78.68,1.71,1.79-.12,1.92-.25,3.83-.37,5.74A1.46,1.46,0,0,1,416,45.38l-1.26-.08q-4-.24-6,1.32a6.11,6.11,0,0,0-2.13,4.73l-.09,1.85q4.44.22,8.87.51c1.19.07,1.75.67,1.68,1.79-.14,2.21-.29,4.43-.43,6.65-.07,1.12-.7,1.64-1.87,1.56L406,63.2q-1,19.35-2.06,38.7A1.49,1.49,0,0,1,402.2,103.48Z" transform="translate(-63.79 -36.14)"/><path d="M430.13,103A26.64,26.64,0,0,1,419,79.49a26.85,26.85,0,0,1,4.2-12.94,24.58,24.58,0,0,1,23.38-11.21,26.3,26.3,0,0,1,13.31,4.8,22.28,22.28,0,0,1,7.81,10.34,28.79,28.79,0,0,1,1.4,13.76c-.05.44-.18,1.22-.38,2.32-.2.9-.85,1.28-2,1.15Q448.45,85.46,430.08,84a16.23,16.23,0,0,0,2.45,7,15.73,15.73,0,0,0,11.74,7.13A18.91,18.91,0,0,0,456,95.49a1.68,1.68,0,0,1,1.2-.33,1.49,1.49,0,0,1,1.16.89q1.48,2.65,2.95,5.32a2.14,2.14,0,0,1,.3,1.13,1.56,1.56,0,0,1-.83,1.17,28.22,28.22,0,0,1-17.87,4.06A25.7,25.7,0,0,1,430.13,103ZM454.83,69a13.22,13.22,0,0,0-8.8-4.14,14.23,14.23,0,0,0-6.6.88,13.94,13.94,0,0,0-5.37,3.76,16.1,16.1,0,0,0-3.35,6.12q14,1.14,27.9,2.7A15.09,15.09,0,0,0,454.83,69Z" transform="translate(-63.79 -36.14)"/><path d="M485.65,109.42a26.49,26.49,0,0,1-8.09-10.78,26.09,26.09,0,0,1-1.72-13.49,25.28,25.28,0,0,1,16.43-20.7,28,28,0,0,1,14.6-1.31,30.7,30.7,0,0,1,9.58,3.17A27.21,27.21,0,0,1,523.86,72a1.55,1.55,0,0,1,.47,1.36,2,2,0,0,1-.59,1l-4.66,4.32a1.54,1.54,0,0,1-1.4.51,1.71,1.71,0,0,1-1.09-.66,20.18,20.18,0,0,0-4.84-3.69,19.12,19.12,0,0,0-6-2,16.4,16.4,0,0,0-8.54.83,16.51,16.51,0,0,0-9.3,21.5,16.37,16.37,0,0,0,5,6.71,15.94,15.94,0,0,0,7.6,3.37,18.59,18.59,0,0,0,6.13,0,19.2,19.2,0,0,0,5.62-1.88,1.92,1.92,0,0,1,1.18-.22,1.58,1.58,0,0,1,1.13,1c.91,1.88,1.8,3.76,2.69,5.65a2,2,0,0,1,.21,1.19,1.39,1.39,0,0,1-.69.94,26.61,26.61,0,0,1-8.64,3,29.65,29.65,0,0,1-9.72,0A26.87,26.87,0,0,1,485.65,109.42Z" transform="translate(-63.79 -36.14)"/><path d="M536.92,120.87q-3.67-.77-7.36-1.5a1.49,1.49,0,0,1-1.34-2q3.75-19,7.51-38l-5.44-1.06a1.53,1.53,0,0,1-1.44-2q.63-3.28,1.24-6.55a1.54,1.54,0,0,1,2.08-1.32l5.46,1.07q.87-4.37,1.72-8.73a1.75,1.75,0,0,1,2-1.49l8.24.27a2.91,2.91,0,0,1,.46,0,1.44,1.44,0,0,1,1.19,1.84q-1.1,5.19-2.18,10.38,4.74,1,9.48,2c1.17.26,1.63.94,1.39,2-.49,2.17-1,4.34-1.46,6.51a1.53,1.53,0,0,1-2.1,1.25q-4.71-1-9.42-2-4,19-8,37.92A1.5,1.5,0,0,1,536.92,120.87Z" transform="translate(-63.79 -36.14)"/><g id="SVGRepo_iconCarrier" data-name="SVGRepo iconCarrier"><path class="cls-2" d="M102.85,96.08c2.83,2.13,4.23,3.3,4.82,4.85,1.16,3.06-.56,5.4-3.62,6.56a8.25,8.25,0,0,1-4.86.53s-1.92-.77-5.21.63c-3.42,1.14-4.34,3-4.34,3a8.15,8.15,0,0,1-4,2.79c-3.06,1.16-5.9.53-7-2.53-.59-1.55-.31-3.35.41-6.82,0,0,1.25-6.85,3.17-10.57a9.12,9.12,0,0,1,4.45-3.84l.95-.36h0a8.9,8.9,0,0,1,5.88-.07A60,60,0,0,1,102.85,96.08ZM78.23,89.6c3.21-1.21,4.27-6.24,2.39-11.23s-6-8.05-9.22-6.84S67.14,77.77,69,82.76,75,90.81,78.23,89.6ZM76,100.45c1.94-2,1-6-2.07-9.09s-7.16-3.88-9.11-1.9-1,6,2.06,9.08S74,102.43,76,100.45Zm15.72-16c3.2-1.21,4.27-6.23,2.38-11.22s-6-8-9.21-6.84-4.27,6.23-2.38,11.22S88.51,85.71,91.71,84.5Zm10-9c-2.78-.19-5.27,3.15-5.58,7.47s1.69,8,4.47,8.17,5.26-3.14,5.57-7.46S104.46,75.71,101.69,75.51Z" transform="translate(-63.79 -36.14)"/></g><g id="SVGRepo_iconCarrier-2" data-name="SVGRepo iconCarrier"><path class="cls-2" d="M135.88,138.59c1.15,2.4,1.67,3.67,1.53,4.9-.3,2.44-2.26,3.41-4.7,3.11a6.16,6.16,0,0,1-3.42-1.34,5.48,5.48,0,0,0-3.69-1.39,5.51,5.51,0,0,0-3.94.49,6.09,6.09,0,0,1-3.61.48c-2.45-.3-4.12-1.7-3.82-4.14.15-1.24,1-2.34,2.65-4.41a36.41,36.41,0,0,1,5.79-5.93,6.87,6.87,0,0,1,4.3-1l.76.09h0a6.69,6.69,0,0,1,3.94,2A44.43,44.43,0,0,1,135.88,138.59ZM121.74,125.7c2.55.31,5-2.67,5.49-6.65s-1.2-7.46-3.75-7.77-5,2.67-5.5,6.65S119.18,125.39,121.74,125.7Zm-5.28,6.44c2-.64,2.79-3.67,1.79-6.77s-3.42-5.08-5.41-4.44-2.78,3.67-1.79,6.77S114.48,132.78,116.46,132.14Zm16-5.15c2.56.31,5-2.66,5.5-6.64s-1.21-7.46-3.76-7.77-5,2.67-5.49,6.65S129.94,126.69,132.49,127Zm9.78-2.51c-1.78-1.1-4.61.26-6.32,3s-1.65,5.9.13,7,4.61-.26,6.31-3S144,125.57,142.27,124.48Z" transform="translate(-63.79 -36.14)"/></g></svg>